<svg xmlns="http://www.w3.org/2000/svg" viewBox="0 0 48 48" width="48" height="48">
  <path fill="#4285F4" d="M36 4H12C7.6 4 4 7.6 4 12v24c0 4.4 3.6 8 8 8h24c4.4 0 8-3.6 8-8V12c0-4.4-3.6-8-8-8z"/>
  <path fill="#fff" d="M36 8H12c-2.2 0-4 1.8-4 4v24c0 2.2 1.8 4 4 4h24c2.2 0 4-1.8 4-4V12c0-2.2-1.8-4-4-4z"/>
  <path fill="#1a73e8" d="M30 18h-4v-4h-4v4h-4v4h4v4h4v-4h4z" opacity=".0"/>
  <rect x="12" y="12" width="24" height="4" rx="1" fill="#4285F4"/>
  <rect x="14" y="20" width="6" height="4" rx="0.5" fill="#4285F4"/>
  <rect x="22" y="20" width="6" height="4" rx="0.5" fill="#34A853"/>
  <rect x="14" y="26" width="6" height="4" rx="0.5" fill="#FBBC04"/>
  <rect x="22" y="26" width="6" height="4" rx="0.5" fill="#EA4335"/>
  <rect x="30" y="20" width="4" height="4" rx="0.5" fill="#4285F4" opacity="0.3"/>
  <rect x="30" y="26" width="4" height="4" rx="0.5" fill="#4285F4" opacity="0.3"/>
</svg>
