<svg xmlns="http://www.w3.org/2000/svg" viewBox="0 0 512 512" width="128" height="128">
  <path d="M267.4 211.6c-25.1 23.7-40.8 57.3-40.8 94.6 0 37.3 15.7 70.9 40.8 94.6l-100.2 58.1c-10.1-14.8-26.8-24.5-45.8-24.5-30.5 0-55.3 24.8-55.3 55.3 0 30.5 24.8 55.3 55.3 55.3 24 0 44.4-15.3 52.1-36.7l102.5-59.4c21.4 14.9 47.4 23.7 75.5 23.7 73.5 0 133.1-59.6 133.1-133.1S424.9 206.2 351.4 206.2c-28.1 0-54.1 8.8-75.5 23.7L173.4 170.5c-7.7-21.3-28.1-36.7-52.1-36.7-30.5 0-55.3 24.8-55.3 55.3 0 30.5 24.8 55.3 55.3 55.3 19 0 35.7-9.7 45.8-24.5l100.3 58.1v-66.4zM351.4 369.7c-35 0-63.4-28.4-63.4-63.4s28.4-63.4 63.4-63.4 63.4 28.4 63.4 63.4-28.4 63.4-63.4 63.4z" fill="#ff7a59"/>
</svg>
